<svg xmlns="http://www.w3.org/2000/svg" viewBox="0 0 320 72" width="320" height="72" role="img" aria-label="Withe">
  <g transform="translate(8 8) scale(0.875)">
    <path fill="#FFFFFF" fill-rule="evenodd" d="M22 8 H42 A14 14 0 0 1 56 22 V42 A14 14 0 0 1 42 56 H22 A14 14 0 0 1 8 42 V22 A14 14 0 0 1 22 8 Z M49 32 A17 17 0 1 1 15 32 A17 17 0 1 1 49 32 Z"/>
    <circle cx="32" cy="32" r="7" fill="#FFFFFF"/>
  </g>
  <text x="82" y="48" fill="#FFFFFF" font-family="Inter, 'Segoe UI', system-ui, -apple-system, sans-serif" font-size="36" font-weight="700" letter-spacing="-0.5">Withe</text>
</svg>
